<svg width="24" height="24" viewBox="0 0 24 24" fill="none" xmlns="http://www.w3.org/2000/svg">
<path d="M18.4643 14.5748C18.9526 14.0866 19.7212 14.0866 20.2095 14.5748C20.6812 15.0631 20.6812 15.8318 20.2095 16.32L12.8968 23.6338C12.6702 23.8603 12.3557 24 12.0072 24C11.6586 24 11.3441 23.8603 11.1164 23.6338L3.80372 16.32C3.31547 15.8318 3.31547 15.0631 3.80372 14.5748C4.29196 14.0866 5.06062 14.0866 5.54887 14.5748L10.7678 19.8114L10.7678 1.22172C10.7667 0.541031 11.3254 0 12.0061 0C12.6867 0 13.2278 0.541031 13.2278 1.22172L13.2278 19.8103L18.4643 14.5748Z" fill="#2E3135"/>
</svg>
