<svg width="30" height="30" viewBox="0 0 30 30" fill="none" xmlns="http://www.w3.org/2000/svg">
<path d="M29.1287 21.4563L24.4819 16.7961C23.3202 15.6311 21.4808 15.6311 20.3191 16.7961L19.2542 17.8641C16.4467 16.1165 14.1233 13.6893 12.2839 10.9709L13.5425 9.70874C14.1233 9.12621 14.4137 8.4466 14.4137 7.57282C14.4137 6.69903 14.1233 6.01942 13.5425 5.43689L8.79882 0.873786C7.63711 -0.291262 5.79774 -0.291262 4.63603 0.873786L1.73176 3.78641C0.182812 5.04854 -0.398042 7.28155 0.279621 9.2233C3.57113 18.7379 11.3159 26.4078 20.8031 29.7087C21.384 29.9029 21.9648 30 22.5457 30C23.901 30 25.1595 29.5146 26.1276 28.5437L29.1287 25.534C29.7096 24.9515 30 24.2718 30 23.3981C30 22.7184 29.7096 21.9417 29.1287 21.4563ZM23.901 26.5049C23.417 26.9903 22.6425 27.1845 21.868 26.8932C13.1552 23.8835 6.18497 16.8932 3.18389 8.25243C2.89347 7.47573 3.08708 6.60194 3.66794 6.11651L3.76475 6.01942L6.66902 3.1068L11.219 7.6699L9.18605 9.61165C8.70201 10.0971 8.6052 10.8738 8.89563 11.4563C11.219 15.534 14.5106 18.8349 18.5765 21.165C19.1574 21.4563 19.9319 21.3592 20.4159 20.8738L22.2553 19.0291L26.8053 23.4951L23.9978 26.3107C23.9978 26.4078 23.9978 26.4078 23.901 26.5049Z" fill="#DE0101"/>
</svg>
