<svg width="30" height="30" viewBox="0 0 30 30" fill="none" xmlns="http://www.w3.org/2000/svg">
<path d="M7.87263 26.883C7.88109 25.9982 7.89799 25.1135 7.90644 24.2288C7.90644 24.0227 7.9318 24.0484 7.7374 23.9625C6.65554 23.5245 5.64975 22.9747 4.76229 22.2017C3.82412 21.3857 3.08879 20.4237 2.54786 19.2984C2.03229 18.2162 1.74492 17.0652 1.58433 15.8798C1.52517 15.416 1.49136 14.9522 1.49136 14.4883C1.49136 14.0503 1.42375 13.6122 1.41529 13.1741C1.40684 12.8649 1.39839 12.5471 1.40684 12.2379C1.41529 11.6023 1.35613 10.9666 1.38149 10.331C1.4322 8.88798 1.68576 7.4793 2.24359 6.13934C3.03808 4.23247 4.33969 2.78944 6.11461 1.77588C7.45003 1.02 8.86997 0.538991 10.3744 0.289895C11.3042 0.135284 12.2339 0.0493895 13.172 0.023621C14.2877 -0.0107369 15.4034 -0.00214731 16.5275 0.0150317C17.9643 0.0322107 19.3843 0.169643 20.7789 0.513223C22.1058 0.831034 23.3567 1.33781 24.5062 2.0851C25.9008 2.987 26.9657 4.18094 27.6842 5.70128C28.1321 6.63753 28.4026 7.62532 28.5801 8.64747C28.7069 9.40335 28.7576 10.1592 28.7491 10.9237C28.7407 11.7311 28.7238 12.5385 28.673 13.3373C28.6392 13.8871 28.6392 14.4368 28.6139 14.9865C28.5209 16.5069 28.2166 17.9757 27.5574 19.35C26.746 21.0335 25.5204 22.3048 23.9146 23.2238C22.5876 23.9797 21.1677 24.4521 19.6801 24.7098C18.5137 24.9074 17.3304 25.0019 16.1472 25.0019C15.4203 25.0019 14.6934 24.9933 13.9665 25.0019C13.5946 25.0019 13.2228 25.0105 12.8509 24.9675C12.7325 24.9589 12.648 24.9933 12.572 25.0878C11.9888 25.7749 11.4056 26.4621 10.8139 27.1492C10.0871 27.9996 9.36019 28.85 8.64177 29.6917C8.5657 29.7776 8.48118 29.8635 8.38821 29.9237C8.16 30.0783 7.92335 29.9924 7.86418 29.7175C7.84728 29.6574 7.85573 29.5801 7.85573 29.5199C7.84728 28.6438 7.86418 27.7591 7.87263 26.883Z" fill="#7143B9"/>
<path d="M6.71472 7.86583C6.74008 6.81792 7.21339 6.02768 8.06704 5.46078C8.42203 5.22027 8.81082 5.0313 9.23342 4.94541C9.67293 4.85092 10.0955 4.91105 10.4674 5.1945C10.7125 5.37488 10.9154 5.59821 11.1182 5.82154C11.7944 6.57741 12.3691 7.39341 12.834 8.3039C12.91 8.45851 12.9777 8.62171 13.0284 8.7935C13.1721 9.2831 13.0622 9.71258 12.741 10.0905C12.6227 10.2279 12.4874 10.3482 12.3438 10.4599C12.2085 10.5543 12.0733 10.6574 11.9465 10.7777C11.6507 11.0611 11.5662 11.4047 11.6592 11.7998C11.693 11.963 11.7521 12.1176 11.8113 12.2637C12.1578 13.0367 12.6227 13.7325 13.2228 14.3337C13.5778 14.6859 13.9581 14.9951 14.3807 15.2614C14.7864 15.5191 15.1921 15.7596 15.6485 15.9228C16.0711 16.0774 16.3923 15.9829 16.6712 15.6221C16.7895 15.4675 16.8909 15.3043 17.0262 15.1583C17.2797 14.8835 17.5671 14.6773 17.9305 14.5914C18.3278 14.4969 18.7081 14.5656 19.0716 14.7288C19.4181 14.8749 19.7224 15.0982 20.0266 15.3129C20.6352 15.7424 21.2268 16.1976 21.8016 16.6701C21.9537 16.7989 22.0889 16.9449 22.2157 17.1081C22.5115 17.5032 22.5707 17.9413 22.4439 18.4051C22.3256 18.8518 22.1058 19.2383 21.8185 19.5905C21.3198 20.2089 20.7113 20.6728 19.959 20.9219C19.7562 20.9906 19.5533 21.0335 19.342 21.0507C19.0716 21.0765 18.818 20.982 18.5644 20.9047C18.3193 20.836 18.0911 20.7157 17.8629 20.6126C16.7219 20.0973 15.6231 19.4874 14.5835 18.7831C13.0199 17.7266 11.6253 16.4897 10.4083 15.0381C9.50389 13.9558 8.71785 12.7876 8.05014 11.5335C7.61909 10.7347 7.23875 9.91013 6.91757 9.05977C6.79079 8.69043 6.71472 8.218 6.71472 7.86583Z" fill="white"/>
<path d="M22.9933 11.3618C22.9848 11.6452 23.0186 11.8514 22.9933 12.0489C22.9341 12.5385 22.5115 12.7962 22.0636 12.6072C21.7931 12.4956 21.7086 12.2551 21.6832 11.9888C21.6579 11.6624 21.6325 11.336 21.5818 11.0096C21.4127 10.0046 21.1423 9.03401 20.6098 8.15788C20.2126 7.50508 19.697 6.97253 19.0546 6.55164C18.3109 6.06204 17.4826 5.77859 16.6205 5.58103C16.2486 5.49514 15.8682 5.42642 15.4879 5.39206C15.3949 5.38347 15.3104 5.36629 15.2259 5.33193C14.9639 5.23745 14.8286 5.03989 14.8455 4.75644C14.8793 4.25825 15.1583 4.06069 15.5386 4.06069C16.9839 4.03492 18.3024 4.42145 19.511 5.22027C20.221 5.69269 20.8549 6.25101 21.3789 6.92958C22.3932 8.24377 22.9848 9.73835 22.9933 11.3618Z" fill="white"/>
<path d="M20.8042 11.2071C20.7958 11.3532 20.8211 11.5421 20.7789 11.7311C20.7197 12.0489 20.5 12.2293 20.1703 12.2379C19.8238 12.2465 19.604 12.0919 19.528 11.7741C19.4942 11.6538 19.4942 11.525 19.4773 11.3961C19.4181 10.8206 19.2829 10.2537 19.0631 9.71257C18.7588 8.93952 18.2095 8.41556 17.4572 8.08916C16.9332 7.86583 16.3923 7.70263 15.8344 7.61673C15.6823 7.59097 15.5386 7.55661 15.4034 7.48789C15.3358 7.45353 15.2766 7.41059 15.2343 7.35046C15.0484 7.11854 15.0569 6.86945 15.1583 6.61176C15.2428 6.37985 15.4203 6.25101 15.6654 6.22524C15.8682 6.19947 16.0711 6.23383 16.2739 6.26818C16.8402 6.35408 17.3896 6.5001 17.9136 6.7492C18.5813 7.0756 19.1561 7.53084 19.6463 8.09775C20.0604 8.58735 20.3732 9.12849 20.576 9.73834C20.7197 10.2108 20.7958 10.6832 20.8042 11.2071Z" fill="white"/>
<path d="M18.6996 11.0439C18.6996 11.2157 18.6996 11.3875 18.6404 11.5507C18.5559 11.7998 18.3784 11.9458 18.1249 11.9802C17.8628 12.0146 17.6516 11.9201 17.5079 11.6967C17.4318 11.5851 17.398 11.4648 17.3811 11.336C17.3473 11.1213 17.3219 10.8979 17.2374 10.7004C17.0599 10.2623 16.7218 10.0046 16.2823 9.88436C16.1978 9.85859 16.1048 9.84142 16.0203 9.82424C15.9527 9.80706 15.8766 9.78988 15.809 9.7727C15.4963 9.67822 15.3357 9.48066 15.3357 9.20579C15.3357 8.87939 15.5132 8.61312 15.809 8.52722C16.0964 8.44133 16.3922 8.45851 16.6796 8.53581C17.3642 8.73337 17.8713 9.17144 18.2685 9.75552C18.5306 10.1335 18.6996 10.5629 18.6996 11.0439Z" fill="white"/>
</svg>
