<svg width="313" height="65" viewBox="0 0 313 65" fill="none" xmlns="http://www.w3.org/2000/svg">
<g clip-path="url(#clip0)">
<path d="M5.9906 15.8484C0.729488 30.07 3.43013 43.5835 15.354 51.7365C16.9905 52.8558 18.6736 53.819 20.3275 54.6833C24.9335 57.0882 29.5915 58.8671 33.0657 61.0362C34.8202 62.1271 36.2648 63.275 37.4666 65.0177L37.7143 64.8214C36.4743 63.029 34.9906 61.8572 33.208 60.755C29.7046 58.5799 25.0453 56.8161 20.4342 54.4224C18.7836 53.5651 17.1067 52.6107 15.4782 51.5023C3.64837 43.4533 0.925084 30.0537 6.14375 15.8993L5.9906 15.8484Z" fill="#CDA756"/>
<path d="M24.6043 50.9908C25.0721 51.3367 25.8232 51.8636 26.6035 52.5824C29.1832 54.9635 29.2645 56.5957 28.958 58.0062C27.1793 56.485 24.8227 55.8839 24.6043 50.9908Z" fill="#CDA756"/>
<path d="M20.3557 49.0626C22.4879 50.8201 24.8866 53.03 24.4044 55.9145C24.1399 55.7243 23.4993 55.3147 22.8332 54.7707C22.1671 54.227 21.4792 53.5451 21.1161 52.8275C20.5949 51.8061 20.3132 50.4999 20.3557 49.0626Z" fill="#CDA756"/>
<path d="M16.4725 46.8305C18.6076 48.9979 20.3471 51.2153 19.923 53.7278C17.8153 52.189 15.9079 50.4963 16.4725 46.8305Z" fill="#CDA756"/>
<path d="M13.0878 44.1317C15.0403 46.8451 16.0798 49.0951 15.6305 51.1804C13.3555 49.2866 12.1139 47.068 13.0878 44.1317Z" fill="#CDA756"/>
<path d="M10.3437 40.863C11.3257 42.9267 12.3839 45.8688 11.6933 48.0561C9.28029 45.3205 9.19528 42.8178 10.3437 40.863Z" fill="#CDA756"/>
<path d="M8.34038 36.9752C8.87467 39.1737 9.33741 42.1785 8.36094 44.197C6.92884 41.767 6.48193 39.0006 8.34038 36.9752Z" fill="#CDA756"/>
<path d="M7.09959 32.5327C7.31727 34.6548 7.15512 37.8213 5.89824 39.6144C4.65842 35.7851 5.77978 33.4992 7.09959 32.5327Z" fill="#CDA756"/>
<path d="M6.66605 27.8127C6.6471 28.2764 6.56797 28.9667 6.43502 29.7232C6.13319 31.4228 5.55199 33.3004 4.41679 34.5186C3.85558 30.5256 5.19984 28.5278 6.66605 27.8127Z" fill="#CDA756"/>
<path d="M7.01379 22.9565C6.77612 24.4428 5.83765 27.5198 3.89154 29.1831C3.97313 25.111 5.58463 23.3819 7.01379 22.9565Z" fill="#CDA756"/>
<path d="M8.06104 18.1039C7.53746 20.0659 6.25973 22.4077 4.26813 23.8148C4.74404 21.2959 5.72449 18.4487 8.06104 18.1039Z" fill="#CDA756"/>
<path d="M9.71262 13.3728C9.01211 15.3169 7.64141 17.2364 5.4256 18.5675C5.83072 17.3461 6.9953 13.4131 9.71262 13.3728Z" fill="#CDA756"/>
<path d="M10.1037 7.58085C9.52386 9.60732 8.00637 14.0474 6.36626 15.1446C6.24534 13.1695 7.20541 10.245 10.1037 7.58085Z" fill="#CDA756"/>
<path d="M20.5571 60.4468C21.1471 60.6167 22.0646 60.8877 23.0969 61.0166C26.4236 61.4355 27.5537 60.2747 28.2484 59.1201C27.8257 59.0434 25.3259 58.1913 23.7707 58.6031C22.6922 58.8893 21.626 59.5354 20.5571 60.4468Z" fill="#CDA756"/>
<path d="M15.393 57.4251C15.9804 57.6648 16.8969 58.0393 17.9457 58.2622C18.9945 58.4875 20.1717 58.5636 21.2827 58.2711C21.9915 58.0854 22.6389 57.6408 23.2388 56.7241C23.0099 56.6805 22.2894 56.4355 21.4329 56.2309C20.576 56.0268 19.583 55.8561 18.7974 55.986C17.6968 56.1708 16.5692 56.6803 15.393 57.4251Z" fill="#CDA756"/>
<path d="M10.3416 53.6119C10.8984 53.9642 11.7732 54.5044 12.8072 54.8983C15.9672 56.1126 17.3884 55.1968 18.2723 54.1221C17.8112 53.9926 15.4406 52.8562 13.9547 52.855C12.8377 52.8585 11.6404 53.1448 10.3416 53.6119Z" fill="#CDA756"/>
<path d="M5.81665 48.6612C6.28688 49.158 7.04936 49.907 8.00403 50.5456C10.8027 52.4224 12.4462 51.8947 13.5417 50.9677C11.5105 49.9947 10.8041 48.4259 5.81665 48.6612Z" fill="#CDA756"/>
<path d="M2.41962 42.5548C3.93644 45.363 6.57406 48.2746 9.33648 46.9677C7.1454 45.1786 7.2666 43.927 2.41962 42.5548Z" fill="#CDA756"/>
<path d="M0.554749 35.8334C0.729497 36.4764 1.02725 37.4825 1.53946 38.523C3.0452 41.5945 4.64475 42.1677 6.06851 41.9984C4.42868 39.7643 4.94952 38.5802 0.554749 35.8334Z" fill="#CDA756"/>
<path d="M0.112305 28.9531C0.319747 32.1082 1.21926 35.7086 4.043 36.2908C3.03498 33.8068 3.7335 32.7705 0.112305 28.9531Z" fill="#CDA756"/>
<path d="M0.940453 22.2632C0.56537 25.3454 0.733674 28.8781 3.25606 30.239C2.83103 27.514 3.58888 26.617 0.940453 22.2632Z" fill="#CDA756"/>
<path d="M2.7803 15.9782C1.93887 18.8553 1.531 22.2126 3.62978 24.1535C3.73497 21.5841 4.60217 20.6941 2.7803 15.9782Z" fill="#CDA756"/>
<path d="M5.41347 10.1577C4.1981 12.8059 3.33516 15.9064 4.99347 18.2589C5.48682 15.7181 6.47826 15.2428 5.41347 10.1577Z" fill="#CDA756"/>
<path d="M61.3614 15.964C67.0986 31.3613 63.8433 45.7674 47.2076 54.5174C45.5583 55.3845 43.9349 56.1547 42.3925 56.8783C36.5359 59.6214 32.424 61.4748 30.0458 64.9435L30.294 65.1401C32.7705 61.5139 37.6925 59.4197 42.5018 57.1526C44.0437 56.4248 45.6694 55.6483 47.3229 54.7737C63.8263 46.0394 67.4236 31.6149 61.5026 15.881L61.3614 15.964Z" fill="#CDA756"/>
<path d="M46.8136 60.5617C46.2244 60.7296 45.3093 60.9971 44.279 61.1248C43.247 61.253 42.1043 61.2423 41.026 60.8879C40.3382 60.6618 39.7114 60.1858 39.1323 59.2284C39.3641 59.1869 40.0955 58.9489 40.9648 58.7806C41.8334 58.6111 42.8379 58.5058 43.6067 58.7102C44.684 58.9972 45.7479 59.6469 46.8136 60.5617Z" fill="#CDA756"/>
<path d="M51.4043 57.8528C49.6036 58.5627 47.563 59.0943 45.6637 58.5935C44.9315 58.4017 44.2288 57.9511 43.6442 57.0574C43.9531 56.9785 44.6664 56.7458 45.4907 56.5624C46.951 56.2388 48.7262 55.9516 51.4043 57.8528Z" fill="#CDA756"/>
<path d="M55.9298 54.5652C53.4615 56.0068 49.9842 57.0577 48.1402 54.7626C48.6625 54.5709 50.0211 54.0183 51.1568 53.7925C52.7303 53.4567 54.522 53.8546 55.9298 54.5652Z" fill="#CDA756"/>
<path d="M60.1239 50.4448C57.9986 52.3671 54.5719 53.9847 52.4865 52.0872C53.9452 51.3274 56.7 49.5218 60.1239 50.4448Z" fill="#CDA756"/>
<path d="M63.5752 45.3737C61.9214 47.7894 58.862 50.1286 56.4945 48.7953C57.7535 47.7933 60.3324 45.3479 63.5752 45.3737Z" fill="#CDA756"/>
<path d="M65.8879 39.5864C64.9248 42.2669 62.4191 45.2742 59.89 44.7323C60.8714 43.4922 62.9794 40.3086 65.8879 39.5864Z" fill="#CDA756"/>
<path d="M66.986 33.5505C66.6993 35.6596 65.1159 39.5966 62.3744 39.934C63.0664 38.3975 64.4253 34.8309 66.986 33.5505Z" fill="#CDA756"/>
<path d="M66.9906 27.4871C67.1113 30.169 66.0679 33.6256 63.8227 34.6599C64.1511 33.2203 64.7843 29.1685 66.9906 27.4871Z" fill="#CDA756"/>
<path d="M66.0317 21.6423C66.5769 24.0817 66.216 27.5251 64.2777 29.1851C64.3428 27.8918 64.1339 23.6634 66.0317 21.6423Z" fill="#CDA756"/>
<path d="M64.2965 16.1401C65.1393 18.2284 65.3702 21.5104 63.8063 23.7251C63.5883 22.0217 62.7787 18.2873 64.2965 16.1401Z" fill="#CDA756"/>
<path d="M61.9385 11.0174C62.9604 12.7336 63.6991 15.6242 62.5426 18.4343C62.0924 16.8065 60.7118 13.3136 61.9385 11.0174Z" fill="#CDA756"/>
<path d="M57.2839 7.76561C60.1289 9.81381 61.456 13.7402 61.1682 15.1789C58.9132 13.1263 57.7089 8.87128 57.2839 7.76561Z" fill="#CDA756"/>
<path d="M43.2184 50.8847C40.7826 52.6973 38.2134 54.8164 38.876 57.8971C40.6635 56.3623 43.0145 55.775 43.2184 50.8847Z" fill="#CDA756"/>
<path d="M47.8933 48.6358C45.4383 50.7721 43.411 52.7036 43.9142 55.5665C44.0986 55.4142 44.7486 55.0021 45.4405 54.4361C46.9344 53.2154 47.9632 51.9143 47.8933 48.6358Z" fill="#CDA756"/>
<path d="M52.0702 45.9834C49.9808 48.4021 48.2859 50.3127 48.8407 53.0658C49.0139 52.9077 49.6237 52.4658 50.2578 51.8607C51.6169 50.5688 52.532 49.0987 52.0702 45.9834Z" fill="#CDA756"/>
<path d="M55.5491 42.7352C53.7601 45.9 52.7799 47.6442 53.486 50.0526C54.6515 48.6659 57.021 47.0422 55.5491 42.7352Z" fill="#CDA756"/>
<path d="M58.1545 38.7829C57.0042 42.5574 56.6408 44.2173 57.5843 46.2496C57.6409 46.1485 57.7766 45.9486 57.9519 45.6828C58.1188 45.4085 58.332 45.0736 58.5213 44.6854C59.4198 42.9074 59.606 41.1762 58.1545 38.7829Z" fill="#CDA756"/>
<path d="M59.8151 34.0978C59.66 36.0476 59.2084 38.9446 60.3745 40.9271C60.4866 41.121 60.6171 41.321 60.7692 41.5283C60.8559 41.249 61.8652 38.9409 61.4862 37.2001C61.2512 36.1124 60.6657 35.0521 59.8151 34.0978Z" fill="#CDA756"/>
<path d="M60.5013 28.9855C60.7894 32.3316 61.0198 34.4551 62.7777 36.0596C62.7882 35.9455 62.8247 35.7087 62.871 35.3954C62.8957 35.2389 62.9118 35.0608 62.9324 34.8702C62.9413 34.7749 62.9507 34.676 62.9603 34.5746C62.9678 34.4728 62.9724 34.3678 62.9775 34.2613C63.0193 33.4086 62.9508 32.4226 62.6497 31.7008C62.2312 30.6877 61.4843 29.7643 60.5013 28.9855Z" fill="#CDA756"/>
<path d="M60.2112 23.6759C60.4033 24.4504 61.0337 27.4253 62.2198 28.9791C62.3271 29.1228 62.4479 29.2636 62.5846 29.4022C62.8609 29.6794 63.1861 29.946 63.6037 30.2064C63.4189 28.4306 63.826 25.7675 60.2112 23.6759Z" fill="#CDA756"/>
<path d="M59.0466 18.3579C60.1416 21.1248 61.0445 23.3143 63.3039 24.2722C62.8214 22.5192 62.8491 19.9933 59.0466 18.3579Z" fill="#CDA756"/>
<path d="M57.1385 13.1987C58.5899 15.92 59.7425 17.8318 62.0297 18.4759C61.3024 16.6977 60.96 14.3744 57.1385 13.1987Z" fill="#CDA756"/>
<path d="M32.6036 0.534266C32.5237 0.586031 24.4807 5.81056 13.7209 9.58653L12.728 9.9349L12.5828 10.9739C12.5412 11.271 11.5912 18.3438 13.5508 27.079C14.7077 32.2358 16.6457 36.9038 19.3101 40.9529C22.6545 46.0348 27.1475 50.1364 32.6641 53.1444L33.052 53.3559H34.0636L34.4515 53.1444C39.9686 50.1369 44.4628 46.0348 47.8078 40.9529C50.4729 36.9037 52.4109 32.2358 53.5678 27.0785C55.5849 18.0878 54.5131 10.842 54.498 10.7851L54.2718 9.90194L53.4124 9.59201C42.7789 5.75067 34.5761 0.573656 34.4951 0.521798L33.554 -0.0752888L32.6036 0.534266ZM33.5561 0.742741C33.7674 0.877159 34.1229 1.10311 34.1229 1.10311C34.2055 1.15535 42.4726 6.37298 53.1775 10.2397C53.1775 10.2397 53.4995 10.3561 53.6928 10.4259C53.7422 10.6194 53.8195 10.9207 53.8251 10.9414C53.8402 11.038 54.1124 12.9014 54.1124 15.8808C54.1124 18.736 53.8616 22.6126 52.8933 26.9283C51.7548 32.0039 49.8488 36.5952 47.2296 40.5748C43.9479 45.5615 39.5365 49.5874 34.119 52.5402C34.119 52.5402 33.974 52.6192 33.8868 52.6669C33.7619 52.6669 33.3534 52.6669 33.2289 52.6669C33.1412 52.6192 32.9962 52.5402 32.9962 52.5402C27.5795 49.587 23.1695 45.5615 19.8881 40.5748C17.2694 36.5952 15.3644 32.0043 14.2255 26.9283C13.2533 22.595 13.0063 18.6822 13.0063 15.8256C13.0063 13.0042 13.2472 11.214 13.2674 11.0689C13.2674 11.0689 13.322 10.6794 13.3546 10.4457C13.578 10.367 13.9503 10.2368 13.9503 10.2368C24.7891 6.43296 32.9026 1.16271 32.9829 1.11L32.9807 1.1117C32.9807 1.1117 33.3437 0.878859 33.5561 0.742741Z" fill="#CDA756"/>
<path d="M33.5657 1.97423C33.5657 1.97423 41.868 7.25402 52.8242 11.2115C52.8242 11.2115 56.711 39.0472 33.622 51.633H33.4944C10.409 39.0471 14.2947 11.2115 14.2947 11.2115C25.3692 7.32505 33.5519 1.97423 33.5519 1.97423H33.5657Z" fill="#CDA756"/>
<path fill-rule="evenodd" clip-rule="evenodd" d="M48.6378 28.1371C48.5622 28.1433 48.5264 28.1134 48.5117 28.0451C48.5089 28.0328 48.5042 28.0207 48.4997 28.0087C47.9377 26.4695 47.3756 24.9305 46.8138 23.3911C45.731 20.4251 44.6483 17.4588 43.5656 14.4925C43.5174 14.3606 43.5171 14.3615 43.6549 14.3189C43.9081 14.2406 44.1541 14.1436 44.3871 14.016C44.468 13.9716 44.5369 13.918 44.5656 13.8251C44.6031 13.7039 44.5238 13.5989 44.3968 13.6046C44.3354 13.6074 44.2815 13.6315 44.2311 13.6662C44.1274 13.7375 44.0105 13.7783 43.8886 13.8036C43.6688 13.8495 43.4457 13.8468 43.2241 13.8237C42.7552 13.7749 42.3017 13.6551 41.8536 13.5122C41.0023 13.2407 40.1825 12.8904 39.3718 12.5178C39.0756 12.3817 38.7689 12.2805 38.4489 12.2201C37.9635 12.1284 37.4751 12.1011 36.9811 12.1371C36.5063 12.1716 36.0404 12.2475 35.587 12.3943C35.2135 12.5155 34.8619 12.6745 34.5914 12.9731C34.5428 13.0269 34.4814 13.0678 34.4176 13.1033C34.2114 13.2179 34.0398 13.1545 33.9632 12.9311C33.9122 12.7821 33.9104 12.6308 33.9584 12.479C34.0803 12.0936 34.1992 11.7074 34.3233 11.3227C34.348 11.2461 34.3464 11.18 34.3202 11.103C34.0829 10.4021 33.8507 9.69951 33.6151 8.99804C33.6008 8.95516 33.6002 8.90424 33.5536 8.86854C33.5433 8.89244 33.5325 8.91378 33.525 8.93627C33.2797 9.6706 33.0353 10.4054 32.7883 11.1394C32.7694 11.1962 32.7736 11.2441 32.7911 11.2994C32.9172 11.6969 33.0413 12.0948 33.164 12.4935C33.2176 12.6674 33.2076 12.8396 33.1249 13.0025C33.0509 13.1485 32.9223 13.195 32.7699 13.1355C32.6607 13.0928 32.569 13.0212 32.4901 12.9362C32.315 12.7479 32.1001 12.6207 31.8664 12.52C31.3631 12.303 30.8328 12.1994 30.2908 12.1472C29.8593 12.1056 29.4282 12.1113 28.9981 12.1671C28.6067 12.2181 28.2256 12.3075 27.8634 12.4671C27.4964 12.6289 27.1316 12.7961 26.7621 12.952C26.0302 13.2604 25.2884 13.5415 24.5119 13.7199C24.1654 13.7995 23.8154 13.8543 23.4579 13.8323C23.2507 13.8198 23.0522 13.7767 22.8762 13.6584C22.8484 13.6396 22.8161 13.6254 22.784 13.6152C22.7098 13.592 22.6397 13.5983 22.5842 13.6598C22.5376 13.7114 22.5355 13.8006 22.5762 13.8756C22.6123 13.9425 22.6715 13.9823 22.7363 14.0177C22.9697 14.1446 23.2153 14.2413 23.4687 14.3202C23.5115 14.3334 23.5601 14.3362 23.5955 14.3703C23.588 14.3956 23.5831 14.4162 23.5761 14.4358C22.9133 16.2506 22.2502 18.065 21.5878 19.8799C20.6581 22.4265 19.7298 24.9736 18.7989 27.5199C18.7263 27.7187 18.6676 27.9231 18.5711 28.1128C18.484 28.1433 18.3937 28.1166 18.3058 28.1273C18.2628 28.1327 18.2033 28.0991 18.1809 28.1573C18.1617 28.2071 18.2081 28.2434 18.2361 28.2795C18.317 28.3843 18.4038 28.4845 18.4938 28.5812C19.1772 29.3158 19.9698 29.8984 20.8908 30.3066C21.694 30.6624 22.5351 30.8611 23.4099 30.9086C23.8797 30.934 24.3497 30.9102 24.8171 30.841C26.4269 30.6028 27.7962 29.8961 28.9365 28.7448C29.0922 28.5876 29.2417 28.4219 29.3721 28.2417C29.4395 28.1488 29.4224 28.1158 29.3094 28.106C29.2284 28.0992 29.1467 28.1017 29.0655 28.1041C28.9762 28.1072 28.9239 28.0702 28.8929 27.9849C28.6059 27.1953 28.3202 26.4049 28.0321 25.6154C27.6973 24.6978 27.3648 23.7793 27.03 22.8616C26.6616 21.8517 26.2964 20.8407 25.9268 19.8312C25.5572 18.8218 25.1918 17.8109 24.8238 16.8008C24.5625 16.0833 24.2988 15.3667 24.0404 14.6481C23.9854 14.4956 23.991 14.4876 24.1578 14.5201C24.4273 14.5726 24.7008 14.5943 24.9734 14.606C25.5253 14.6301 26.0762 14.5961 26.6234 14.5183C27.4653 14.399 28.3 14.2275 29.1538 14.192C29.4688 14.1788 29.7779 14.1933 30.0821 14.2654C30.5619 14.3791 30.8768 14.6797 31.0368 15.1432C31.0841 15.2804 31.1309 15.4177 31.1505 15.5624C31.164 15.6627 31.2198 15.7138 31.3238 15.71C31.3666 15.7084 31.4094 15.7104 31.4522 15.7104C31.9528 15.7104 32.4534 15.7121 32.954 15.7091C33.0586 15.7084 33.1012 15.7443 33.097 15.8505C33.0933 15.9448 33.0702 16.0362 33.0702 16.1304C33.0688 16.8971 32.9173 17.6374 32.6793 18.3633C32.5689 18.6998 32.4718 19.04 32.4002 19.3874C32.299 19.8796 32.3014 20.3778 32.2974 20.8771C32.2905 21.6984 32.4383 22.4894 32.7448 23.2496C32.9836 23.842 33.0947 24.4538 33.0396 25.0894C32.9866 25.7003 32.8346 26.2916 32.6296 26.8681C32.4377 27.4073 32.3307 27.9629 32.3032 28.5313C32.2717 29.1847 32.3274 29.834 32.4512 30.4778C32.5472 30.9772 32.6742 31.4679 32.8339 31.9503C32.8605 32.031 32.8658 32.0811 32.7675 32.115C32.6435 32.1577 32.5501 32.2506 32.4692 32.3508C32.1258 32.7759 31.9892 33.257 32.0866 33.7979C32.1368 34.0762 32.2582 34.3236 32.4321 34.5456C32.4831 34.6106 32.5177 34.6698 32.446 34.7475C32.2321 34.9786 31.9942 35.1745 31.7034 35.305C31.0781 35.5854 30.4154 35.6143 29.7515 35.5672C28.8943 35.5068 28.0525 35.3084 27.1929 35.2568C26.7529 35.2306 26.3203 35.2471 25.9024 35.3979C25.6811 35.478 25.4881 35.6043 25.3519 35.8008C25.0678 36.2105 25.0515 36.663 25.1711 37.1247C25.2246 37.3309 25.3282 37.5225 25.5308 37.6339C30.8885 37.6339 36.246 37.6339 41.6037 37.6339C41.6103 37.5972 41.643 37.5802 41.6649 37.5551C41.8146 37.385 41.9152 37.1895 41.9574 36.9671C41.9903 36.7948 41.9888 36.6215 41.9693 36.4458C41.8936 35.7604 41.4754 35.4982 41.0634 35.382C40.7134 35.2832 40.3546 35.2698 39.9952 35.2875C39.41 35.3171 38.832 35.4117 38.2532 35.4968C37.8898 35.5503 37.5262 35.604 37.1583 35.6149C36.7035 35.6286 36.2522 35.6058 35.8111 35.4832C35.3471 35.3548 34.9409 35.1318 34.6324 34.7542C34.5364 34.6366 34.5514 34.6653 34.6298 34.567C34.9525 34.1631 35.102 33.7071 35.0029 33.1944C34.9089 32.7097 34.7058 32.2902 34.2059 32.0851C34.2115 32.0679 34.2176 32.0476 34.2241 32.0276C34.5458 31.0657 34.7605 30.0835 34.7862 29.0657C34.7997 28.5269 34.7526 27.9939 34.6322 27.468C34.5542 27.1268 34.423 26.8024 34.3229 26.4684C34.1743 25.9732 34.0662 25.4704 34.0356 24.9538C34.005 24.4328 34.0856 23.9273 34.2696 23.4376C34.4013 23.0871 34.5334 22.7364 34.6208 22.3712C34.7507 21.8293 34.7943 21.2784 34.7972 20.7235C34.7994 20.3141 34.7718 19.9067 34.7033 19.5018C34.6369 19.1102 34.5248 18.7311 34.3989 18.356C34.1185 17.5196 33.9951 16.66 33.9992 15.7801C34 15.6586 33.9879 15.6713 34.1096 15.6705C34.1309 15.6704 34.1522 15.6705 34.1737 15.6705C34.7215 15.6705 35.2691 15.6708 35.8167 15.6704C35.913 15.6703 35.9133 15.669 35.9292 15.5762C35.9532 15.4377 35.9872 15.3015 36.0324 15.1687C36.1697 14.7659 36.4121 14.4564 36.8197 14.2963C37.1482 14.167 37.4937 14.1451 37.8409 14.1508C38.3501 14.159 38.8541 14.2292 39.3573 14.3023C39.881 14.3786 40.4006 14.4804 40.9285 14.5304C41.57 14.591 42.209 14.5955 42.8472 14.5009C42.9558 14.4849 43.0644 14.4671 43.174 14.4499C43.1819 14.5016 43.1579 14.5385 43.144 14.5768C41.7895 18.3001 40.4343 22.0231 39.079 25.7464C38.8009 26.5101 38.522 27.2736 38.2432 28.0372C38.1999 28.1561 38.2193 28.1375 38.1023 28.1389C37.9805 28.1402 37.8589 28.1392 37.7259 28.1392C38.8225 29.6242 40.9058 30.9121 43.4389 30.8807C45.8152 30.8513 47.8626 29.5965 48.9365 28.1347C48.8317 28.1351 48.7342 28.1292 48.6378 28.1371ZM28.2375 28.1331C25.2393 28.1331 22.2553 28.1331 19.271 28.1331C19.2765 28.0366 23.6235 16.0924 23.752 15.8226C25.2507 19.9353 26.7421 24.0287 28.2375 28.1331ZM38.8826 28.1326C40.3761 24.0335 41.8685 19.9373 43.3616 15.8391C43.4181 15.9161 47.7971 27.8819 47.86 28.1305C47.6833 28.1403 39.004 28.1429 38.8826 28.1326Z" fill="black"/>
<path d="M105.632 27.185C105.632 27.6552 105.766 27.9909 105.766 28.2596C105.766 28.5283 105.564 28.6626 105.227 28.797C102.498 30.1739 99.6345 30.9464 95.3556 30.9464C91.8517 30.9464 87.9098 29.8381 85.5849 27.1179C83.5297 24.8006 82.4852 21.946 82.4852 17.8825C82.4852 14.8263 83.934 11.5688 86.3936 9.45302C88.8531 7.30369 91.8853 6.16183 95.9284 6.16183C99.3313 6.16183 101.858 7.1022 102.97 7.80742C103.374 8.04246 103.61 7.97537 103.812 7.70668L104.149 7.16929C104.318 6.93414 104.385 6.8334 104.587 6.8334C104.958 6.8334 105.059 7.06843 105.059 7.43787L105.564 14.3561C105.598 14.7591 105.564 14.9271 105.429 14.9606L104.486 15.1621C104.284 15.1956 104.183 15.1286 104.082 14.8262C103.543 13.1806 102.464 11.0313 101.016 9.72148C99.7018 8.47888 97.9835 7.63936 95.6924 7.63936C93.8731 7.63936 92.1884 8.21029 90.6049 10.1581C89.0551 12.0052 87.9097 14.7927 87.9097 17.8152C87.9097 21.778 89.0214 25.2372 90.8408 27.0507C92.4243 28.6291 93.7046 29.3343 95.9957 29.3343C97.7477 29.3343 98.6911 29.2 99.8029 28.6626C100.51 28.3267 100.578 27.2521 100.578 25.5057V23.0877C100.578 21.8788 100.241 21.5429 99.3986 21.5429H97.9835C97.7813 21.5429 97.7477 21.4086 97.7477 21.2406V20.401C97.7477 20.2667 97.7813 20.166 97.9836 20.166C98.2867 20.166 99.9376 20.2667 102.97 20.2667C106.07 20.2667 107.316 20.166 107.586 20.166C107.855 20.166 107.889 20.2667 107.889 20.4347V21.2743C107.889 21.4758 107.855 21.543 107.653 21.543H106.676C106.07 21.543 105.632 21.7781 105.632 22.752V27.185H105.632Z" fill="black"/>
<path d="M113.246 15.1621C113.246 12.6769 113.246 10.5276 113.212 9.62074C113.179 8.51253 112.741 7.9416 112.269 7.9416H110.921C110.753 7.9416 110.719 7.84086 110.719 7.70657V6.79974C110.719 6.63179 110.753 6.5647 110.921 6.56459C111.224 6.56459 112.269 6.66534 115.941 6.66534C117.828 6.66534 120.793 6.56459 122.174 6.56459C124.802 6.56459 126.757 7.50485 128.138 8.78111C129.351 9.88932 130.058 11.1991 130.058 12.4416C130.058 16.7067 126.858 18.621 123.893 18.8897V19.1249C124.937 19.4608 125.476 20.0988 126.116 20.9047C126.554 21.4421 128.407 24.4311 128.677 24.8341C128.879 25.1363 130.699 27.6886 131.372 28.461C131.777 28.8977 133.057 29.1664 133.832 29.1664C134.068 29.1664 134.102 29.3007 134.102 29.4351V30.2411C134.102 30.4426 134.068 30.5434 133.832 30.5434C133.562 30.5434 132.686 30.4426 130.092 30.4426C129.115 30.4426 127.868 30.5098 126.891 30.5434C125.881 29.771 123.792 25.8753 123.219 24.7334C122.073 22.4498 120.692 19.9646 119.075 19.9646H117.929V21.6774C117.929 23.6588 118.03 27.4201 118.098 27.8568C118.165 28.562 118.435 29.1666 118.94 29.1666H120.321C120.557 29.1666 120.591 29.2673 120.591 29.4353V30.2414C120.591 30.4764 120.557 30.5436 120.052 30.5436C120.018 30.5436 119.176 30.4429 115.638 30.4429C112.067 30.4429 111.292 30.5436 110.921 30.5436C110.652 30.5436 110.652 30.4429 110.652 30.2078V29.4354C110.652 29.2674 110.652 29.1667 110.82 29.1667H111.831C112.572 29.1667 113.179 28.9316 113.179 28.092C113.246 24.7672 113.246 21.6104 113.246 18.42V15.1621ZM117.963 18.7891C118.603 18.8226 119.007 18.8226 119.311 18.8226C123.758 18.8226 124.802 14.5911 124.802 13.0127C124.802 11.4678 124.263 9.99018 123.522 9.2513C122.309 8.17664 120.793 7.77365 119.782 7.77365C119.209 7.77365 118.772 7.84086 118.502 8.07589C118.3 8.2103 118.199 8.57962 118.131 8.98272L117.963 18.7891Z" fill="black"/>
<path d="M143.508 21.2406C143.238 21.9459 141.587 26.5468 141.587 27.6215C141.587 28.3603 141.89 29.1664 142.901 29.1664H144.081C144.417 29.1664 144.451 29.3006 144.451 29.435V30.1739C144.451 30.4426 144.417 30.5433 144.148 30.5433C143.71 30.5433 142.329 30.4425 139.566 30.4425C137.106 30.4425 136.365 30.5433 135.893 30.5433C135.691 30.5433 135.658 30.3418 135.658 30.1066V29.4685C135.658 29.267 135.691 29.1662 135.893 29.1662H136.769C137.578 29.1662 138.387 28.6961 139.06 27.6886C139.532 26.9834 141.924 21.1398 143.036 18.1845C143.306 17.5128 146.035 10.2923 146.338 9.38559C146.439 9.04969 146.607 8.61316 146.372 8.24373C146.27 8.10932 146.136 7.94149 146.136 7.80709C146.136 7.70634 146.203 7.57194 146.473 7.50485C147.551 7.26981 149.741 6.39664 150.246 5.82571C150.414 5.65776 150.516 5.52347 150.684 5.52347C150.886 5.52347 150.954 5.72496 151.055 6.0944C151.695 8.21018 154.323 15.7329 154.963 17.8822C155.738 20.5017 157.928 26.7482 158.399 27.6551C158.972 28.7633 159.848 29.1664 160.354 29.1664H161.499C161.701 29.1664 161.735 29.3006 161.735 29.4686V30.1067C161.735 30.3082 161.701 30.5434 161.432 30.5434C160.792 30.5434 160.084 30.4426 155.772 30.4426C152.975 30.4426 151.796 30.5434 151.122 30.5434C150.785 30.5434 150.751 30.3419 150.751 30.1067V29.4686C150.751 29.3006 150.785 29.1664 150.954 29.1664H151.897C152.807 29.1664 153.11 28.8305 152.908 27.9573C152.605 26.7483 151.29 22.4496 150.886 21.2406H143.508ZM150.583 19.8973C150.28 18.8898 148.292 11.8373 148.056 10.9976C147.921 10.4939 147.854 10.2588 147.685 10.2588C147.483 10.2588 147.382 10.3932 147.281 10.6954C147.113 11.132 144.215 19.0578 143.945 19.8973H150.583Z" fill="black"/>
<path d="M185.454 20.6697C185.454 17.6808 185.42 16.0352 185.353 14.356C185.319 13.0463 185.151 9.75514 185.05 9.25141C184.847 8.41179 184.039 7.9416 183.264 7.9416H182.186C182.017 7.9416 181.984 7.84086 181.984 7.63936V6.79974C181.984 6.63179 182.017 6.5647 182.287 6.56459C182.657 6.56459 183.736 6.66534 186.229 6.66534C188.25 6.66534 189.059 6.56459 189.429 6.56459C189.733 6.56459 189.766 6.63179 189.766 6.83328V7.63936C189.766 7.80731 189.733 7.9416 189.598 7.9416H188.655C188.082 7.9416 187.745 8.51253 187.644 9.72148C187.408 11.9717 186.869 19.5615 186.869 23.9945V29.7373C186.869 30.241 186.835 30.8455 186.364 30.8455C185.858 30.8455 185.42 30.6775 185.05 30.3081C184.477 29.7707 182.826 27.9908 180.804 25.6064C178.379 22.7518 175.683 19.5277 175.043 18.7888C174.47 18.1172 169.821 12.3408 169.046 11.2326H168.776V18.0164C168.776 20.8039 169.079 24.9347 169.113 26.2108C169.181 28.1587 169.787 29.1662 171.202 29.1662H172.044C172.28 29.1662 172.314 29.267 172.314 29.4685V30.2746C172.314 30.4761 172.28 30.5433 172.044 30.5433C171.708 30.5433 169.686 30.4425 168.103 30.4425C167.058 30.4425 164.733 30.5433 164.396 30.5433C164.262 30.5433 164.228 30.4761 164.228 30.241V29.3678C164.228 29.2671 164.262 29.1664 164.43 29.1664H165.609C166.351 29.1664 166.89 28.0917 167.058 25.8415C167.092 25.2034 167.361 19.8301 167.361 14.8598V11.8373C167.361 9.85589 166.148 7.97515 164.464 7.9416L163.622 7.90806C163.453 7.90806 163.419 7.77377 163.419 7.67302V6.7662C163.419 6.6319 163.453 6.5647 163.622 6.5647C163.79 6.5647 164.06 6.59825 164.7 6.59825C165.373 6.6319 166.452 6.66545 168.204 6.66545C169.349 6.66545 170.36 6.59825 170.764 6.59825C171.202 6.59825 171.472 6.73254 171.741 7.03478C171.91 7.23627 178.547 15.3299 179.558 16.5725C180.03 17.1435 184.949 23.2893 185.319 23.7258H185.454V20.6697H185.454Z" fill="black"/>
<path d="M201.697 8.21029H200.517C199.439 8.21029 197.418 8.24384 196.003 8.74768C195.261 9.28506 193.779 11.3335 192.937 12.5426C192.836 12.7105 192.735 12.8113 192.6 12.7776L191.859 12.5089C191.724 12.4754 191.69 12.3074 191.724 12.2067C192.094 10.7961 193.206 6.36321 193.341 5.69153C193.442 5.25489 193.611 5.1206 193.846 5.1206C194.082 5.1206 194.183 5.25489 194.487 5.62433C194.857 6.09451 195.497 6.39675 196.71 6.46384C198.496 6.56459 199.911 6.66533 203.415 6.66533H205.369C209.042 6.66533 210.49 6.53104 211.905 6.46384C212.647 6.4303 213.96 6.02731 214.365 5.62433C214.702 5.28843 214.904 5.1206 215.14 5.1206C215.376 5.1206 215.477 5.25489 215.544 5.65798C215.645 6.39675 216.285 10.5612 216.555 12.3411C216.589 12.4755 216.521 12.6098 216.42 12.6433L215.713 12.912C215.578 12.9456 215.51 12.8448 215.376 12.6098C214.634 11.4008 213.32 9.65439 212.478 8.84842C211.636 8.34469 208.637 8.21029 207.862 8.21029H206.751V17.4457C206.751 17.9159 206.751 27.3193 206.784 27.823C206.852 28.6626 207.121 29.1663 207.93 29.1663H209.446C209.749 29.1663 209.783 29.2671 209.783 29.5021V30.2746C209.783 30.4425 209.749 30.5433 209.446 30.5433C209.109 30.5433 208.031 30.4425 204.291 30.4425C200.72 30.4425 199.305 30.5433 198.833 30.5433C198.563 30.5433 198.53 30.409 198.53 30.1403V29.5021C198.53 29.2671 198.564 29.1663 198.766 29.1663H200.484C201.158 29.1663 201.562 28.7634 201.63 28.1589C201.697 27.4536 201.697 17.1435 201.697 16.5053V8.21029H201.697Z" fill="black"/>
<path d="M236.77 19.9308C236.77 20.5017 236.77 27.7558 236.871 29.0991H238.791C240.375 29.0991 241.891 29.0991 243.71 28.9312C245.529 28.7633 247.821 24.7333 248.326 23.4907C248.427 23.2892 248.528 23.1885 248.73 23.2892L249.404 23.5579C249.505 23.6251 249.505 23.6586 249.471 23.8601C249.37 24.0952 248.023 29.6364 247.821 30.5432C246.945 30.476 237.241 30.4425 234.142 30.4425C230.806 30.4425 229.593 30.5432 229.155 30.5432C228.919 30.5432 228.886 30.476 228.886 30.241V29.4014C228.886 29.2334 228.919 29.1663 229.121 29.1663H230.166C231.412 29.1663 231.615 28.6962 231.615 28.3267C231.615 27.6886 231.716 19.3263 231.716 17.2778V15.397C231.716 13.2477 231.648 9.68782 231.615 9.15043C231.547 8.27726 231.379 7.94148 230.604 7.94148H229.357C229.155 7.94148 229.121 7.77354 229.121 7.6057V6.79962C229.121 6.63167 229.155 6.56458 229.357 6.56447C229.728 6.56447 230.941 6.66522 234.007 6.66522C237.949 6.66522 239.364 6.56447 239.667 6.56447C239.937 6.56447 239.97 6.66522 239.97 6.90025V7.67268C239.97 7.84062 239.903 7.94137 239.633 7.94137H238.05C237.006 7.94137 236.871 8.27726 236.871 9.18398C236.871 9.62062 236.77 14.6917 236.77 17.0425V19.9308H236.77Z" fill="black"/>
<path d="M258.521 21.2406C258.251 21.9459 256.601 26.5468 256.601 27.6215C256.601 28.3603 256.904 29.1664 257.915 29.1664H259.094C259.431 29.1664 259.464 29.3006 259.464 29.435V30.1739C259.464 30.4426 259.431 30.5433 259.161 30.5433C258.723 30.5433 257.342 30.4425 254.579 30.4425C252.12 30.4425 251.378 30.5433 250.907 30.5433C250.704 30.5433 250.671 30.3418 250.671 30.1066V29.4685C250.671 29.267 250.704 29.1662 250.907 29.1662H251.783C252.591 29.1662 253.4 28.6961 254.074 27.6886C254.545 26.9834 256.937 21.1398 258.049 18.1845C258.319 17.5128 261.048 10.2923 261.351 9.38559C261.452 9.04969 261.621 8.61316 261.385 8.24373C261.284 8.10932 261.149 7.94149 261.149 7.80709C261.149 7.70634 261.216 7.57194 261.486 7.50485C262.564 7.26981 264.754 6.39664 265.259 5.82571C265.428 5.65776 265.529 5.52347 265.697 5.52347C265.9 5.52347 265.967 5.72496 266.068 6.0944C266.708 8.21018 269.336 15.7329 269.976 17.8822C270.751 20.5017 272.941 26.7482 273.413 27.6551C273.986 28.7633 274.862 29.1664 275.367 29.1664H276.512C276.715 29.1664 276.748 29.3006 276.748 29.4686V30.1067C276.748 30.3082 276.715 30.5434 276.445 30.5434C275.805 30.5434 275.097 30.4426 270.785 30.4426C267.988 30.4426 266.809 30.5434 266.135 30.5434C265.798 30.5434 265.765 30.3419 265.765 30.1067V29.4686C265.765 29.3006 265.798 29.1664 265.967 29.1664H266.91C267.82 29.1664 268.123 28.8305 267.921 27.9573C267.618 26.7483 266.304 22.4496 265.9 21.2406H258.521ZM265.596 19.8973C265.293 18.8898 263.305 11.8373 263.069 10.9976C262.935 10.4939 262.867 10.2588 262.699 10.2588C262.497 10.2588 262.396 10.3932 262.294 10.6954C262.126 11.132 259.228 19.0578 258.959 19.8973H265.596Z" fill="black"/>
<path d="M291.963 13.3484H291.761C291.391 14.3224 285.494 29.9387 285.36 30.2746C285.225 30.6439 285.056 31.1141 284.517 31.1141C284.147 31.1141 283.945 30.8454 283.81 30.4424L276.229 9.15043C275.892 8.21018 275.286 7.94148 274.848 7.94148H274.005C273.837 7.94148 273.803 7.80719 273.803 7.67279V6.79962C273.803 6.63167 273.837 6.56458 274.073 6.56447C274.343 6.56447 275.387 6.66522 278.857 6.66522C281.283 6.66522 282.664 6.56447 283.001 6.56447C283.237 6.56447 283.271 6.66522 283.271 6.83316V7.67279C283.271 7.84074 283.237 7.94148 283.001 7.94148H282.26C281.721 7.94148 281.384 8.41167 281.586 9.08334L286.202 23.7258H286.404C286.809 22.584 290.852 11.9045 290.852 10.6954C290.852 9.85588 290.515 8.9826 290.211 8.57962C289.908 8.17663 289.47 7.94148 289.201 7.94148H288.527C288.358 7.94148 288.325 7.87428 288.325 7.67279V6.79962C288.325 6.66533 288.359 6.56458 288.561 6.56447C288.864 6.56447 290.043 6.66522 293.008 6.66522C295.838 6.66522 297.118 6.56447 297.455 6.56447C297.657 6.56447 297.691 6.66522 297.691 6.86671V7.70633C297.691 7.84062 297.657 7.94137 297.455 7.94137H296.445C295.906 7.94137 295.602 8.68025 295.771 9.25118L300.42 23.7257H300.623C302.273 19.1584 305.205 10.6281 305.205 8.81465C305.205 8.44521 304.767 7.94148 304.127 7.94148H303.149C302.947 7.94148 302.914 7.84074 302.914 7.63924V6.79962C302.914 6.66533 302.947 6.56458 303.183 6.56447C303.52 6.56447 304.699 6.66522 306.788 6.66522C308.675 6.66522 309.652 6.56447 309.922 6.56447C310.124 6.56447 310.157 6.63167 310.157 6.86671V7.70633C310.157 7.84062 310.157 7.94137 309.922 7.94137H309.281C308.709 7.94137 308.035 8.31081 307.698 9.15032C307.293 10.225 300.521 28.4609 299.848 30.0728C299.679 30.4758 299.443 31.114 298.837 31.114C298.365 31.114 298.163 30.6773 297.995 30.2072L291.963 13.3484Z" fill="black"/>
<path d="M84.2477 54.7938C82.6378 53.3626 81.8765 50.8689 81.8765 49.0041C81.8765 46.7707 82.5944 44.7539 84.1172 43.1277C85.3573 41.8049 87.1628 40.7857 89.8603 40.7857C91.8399 40.7857 93.4715 41.2845 94.233 41.6965C94.5376 41.8484 94.6463 41.8266 94.6898 41.6748L94.8638 41.1327C94.9074 41.0027 94.9508 41.0027 95.2772 41.0027C95.6036 41.0027 95.6471 41.0461 95.6471 41.3496C95.6471 41.7616 96.0387 45.448 96.1474 46.0984C96.1691 46.2503 96.1474 46.3586 96.0385 46.3804L95.56 46.5105C95.4511 46.5539 95.3642 46.4671 95.299 46.272C95.0597 45.4046 94.4723 44.2987 93.5586 43.3663C92.6231 42.4555 91.4702 41.74 89.8168 41.74C86.6407 41.74 85.292 44.624 85.3137 47.8333C85.3137 49.1994 85.7053 51.8666 87.2499 53.4929C88.6638 54.9457 89.9038 55.1192 90.6435 55.1192C93.1235 55.1192 94.9726 53.9916 95.7774 52.7989C95.8863 52.6255 95.995 52.5388 96.1037 52.6255L96.4736 52.9507C96.5387 52.994 96.5604 53.0808 96.4736 53.2109C95.2117 55.0323 93.1016 56.7888 90.0343 56.7888C87.141 56.7888 85.6183 56.0082 84.2477 54.7938Z" fill="black"/>
<path d="M101.658 55.3793C100.113 54.4468 98.4598 52.1049 98.4598 48.9391C98.4598 47.6163 98.808 45.5563 100.483 43.5397C102.397 41.2194 104.856 40.7857 106.814 40.7857C108.619 40.7857 110.294 41.0676 112.122 42.4988C113.775 43.8 115.102 45.99 115.102 48.9825C115.102 50.5654 114.602 52.2134 113.47 53.7313C112.056 55.4878 110.207 56.7888 106.77 56.7888C105.269 56.7888 103.376 56.4418 101.658 55.3793ZM111.686 49.1558C111.686 44.4069 108.554 41.8049 106.726 41.8049C106.291 41.8049 105.204 41.6965 103.877 42.976C102.593 44.1902 101.941 46.4671 101.941 48.2453C101.941 53.7964 105.138 55.7696 106.944 55.7696C110.969 55.7696 111.686 50.934 111.686 49.1558Z" fill="black"/>
<path d="M118.717 46.5972C118.717 44.9925 118.717 43.6047 118.695 43.0192C118.674 42.3036 118.391 41.935 118.086 41.935H117.216C117.107 41.935 117.086 41.87 117.086 41.7832V41.1976C117.086 41.0892 117.107 41.0459 117.216 41.0459C117.412 41.0459 118.086 41.1109 120.458 41.1109C121.676 41.1109 123.59 41.0459 124.482 41.0459C126.179 41.0459 127.441 41.6529 128.333 42.4769C129.116 43.1926 129.573 44.0383 129.573 44.8405C129.573 47.5945 127.506 48.8305 125.592 49.0039V49.1557C126.266 49.3727 126.614 49.7845 127.027 50.305C127.31 50.652 128.507 52.5818 128.681 52.842C128.811 53.0371 129.986 54.6852 130.421 55.184C130.682 55.4659 131.509 55.6393 132.009 55.6393C132.161 55.6393 132.183 55.7261 132.183 55.8128V56.3332C132.183 56.4634 132.161 56.5284 132.009 56.5284C131.835 56.5284 131.269 56.4634 129.594 56.4634C128.964 56.4634 128.159 56.5068 127.528 56.5284C126.875 56.0298 125.526 53.5144 125.157 52.7771C124.417 51.3026 123.525 49.6979 122.481 49.6979H121.741V50.8038C121.741 52.0832 121.806 54.5118 121.85 54.7937C121.894 55.249 122.068 55.6393 122.394 55.6393H123.286C123.438 55.6393 123.46 55.7044 123.46 55.8128V56.3332C123.46 56.4851 123.438 56.5284 123.112 56.5284C123.09 56.5284 122.546 56.4634 120.262 56.4634C117.956 56.4634 117.456 56.5284 117.216 56.5284C117.042 56.5284 117.042 56.4634 117.042 56.3116V55.8128C117.042 55.7044 117.042 55.6393 117.151 55.6393H117.804C118.282 55.6393 118.674 55.4876 118.674 54.9453C118.717 52.7986 118.717 50.7603 118.717 48.7003V46.5972H118.717ZM121.763 48.9391C122.176 48.9607 122.437 48.9607 122.633 48.9607C125.504 48.9607 126.179 46.2284 126.179 45.2093C126.179 44.2117 125.831 43.2577 125.352 42.7806C124.569 42.0867 123.59 41.8266 122.937 41.8266C122.568 41.8266 122.285 41.87 122.111 42.0217C121.98 42.1084 121.915 42.3469 121.871 42.6072L121.763 48.9391Z" fill="black"/>
<path d="M138.9 50.7171C138.9 51.7363 138.922 54.6853 138.944 54.9454C138.987 55.4226 139.205 55.6394 139.553 55.6394H140.662C140.815 55.6394 140.836 55.7045 140.836 55.7912V56.355C140.836 56.4635 140.815 56.5285 140.641 56.5285C140.336 56.5285 139.662 56.4635 137.116 56.4635C135.202 56.4635 134.354 56.5285 134.114 56.5285C133.962 56.5285 133.94 56.4635 133.94 56.3766V55.7911C133.94 55.6827 133.962 55.6393 134.071 55.6393H134.636C135.376 55.6393 135.528 55.5308 135.593 54.9887C135.615 54.7719 135.681 51.3891 135.681 48.8738V46.38C135.681 44.9488 135.659 42.672 135.637 42.4119C135.593 41.9782 135.376 41.9347 134.941 41.9347H133.918C133.809 41.9347 133.788 41.8913 133.788 41.7613V41.1975C133.788 41.0891 133.809 41.0458 133.918 41.0458C134.158 41.0458 134.941 41.1108 137.225 41.1108C137.616 41.1108 138.9 41.0458 139.618 41.0458C142.294 41.0458 143.577 41.2626 144.839 42.2383C145.753 42.9323 146.405 44.1682 146.405 45.5994C146.405 48.2015 144.317 49.9796 140.662 49.9796C139.988 49.9796 139.487 49.9579 138.9 49.9146V50.7171H138.9ZM138.9 49.0692C139.379 49.1776 139.879 49.1992 140.227 49.1992C140.902 49.1992 141.989 48.5053 142.468 47.7464C142.903 47.0742 142.99 46.2502 142.99 45.4479C142.99 42.4554 140.815 41.8267 139.923 41.8267C139.553 41.8267 139.292 41.8484 138.9 41.9351V49.0692Z" fill="black"/>
<path d="M151.607 55.3793C150.062 54.4468 148.409 52.1049 148.409 48.9391C148.409 47.6163 148.757 45.5563 150.432 43.5397C152.347 41.2194 154.805 40.7857 156.763 40.7857C158.568 40.7857 160.244 41.0676 162.071 42.4988C163.724 43.8 165.051 45.99 165.051 48.9825C165.051 50.5654 164.551 52.2134 163.42 53.7313C162.006 55.4878 160.156 56.7888 156.719 56.7888C155.218 56.7888 153.325 56.4418 151.607 55.3793ZM161.636 49.1558C161.636 44.4069 158.503 41.8049 156.676 41.8049C156.241 41.8049 155.153 41.6965 153.826 42.976C152.542 44.1902 151.89 46.4671 151.89 48.2453C151.89 53.7964 155.088 55.7696 156.893 55.7696C160.918 55.7696 161.636 50.934 161.636 49.1558Z" fill="black"/>
<path d="M168.666 46.5972C168.666 44.9925 168.666 43.6047 168.645 43.0192C168.623 42.3036 168.34 41.935 168.036 41.935H167.166C167.057 41.935 167.035 41.87 167.035 41.7832V41.1976C167.035 41.0892 167.057 41.0459 167.166 41.0459C167.361 41.0459 168.036 41.1109 170.407 41.1109C171.625 41.1109 173.54 41.0459 174.431 41.0459C176.128 41.0459 177.39 41.6529 178.282 42.4769C179.065 43.1926 179.522 44.0383 179.522 44.8405C179.522 47.5945 177.455 48.8305 175.541 49.0039V49.1557C176.215 49.3727 176.563 49.7845 176.977 50.305C177.26 50.652 178.456 52.5818 178.63 52.842C178.761 53.0371 179.935 54.6852 180.37 55.184C180.631 55.4659 181.458 55.6393 181.958 55.6393C182.111 55.6393 182.132 55.7261 182.132 55.8128V56.3332C182.132 56.4634 182.111 56.5284 181.958 56.5284C181.784 56.5284 181.219 56.4634 179.544 56.4634C178.913 56.4634 178.108 56.5068 177.477 56.5284C176.824 56.0298 175.476 53.5144 175.106 52.7771C174.366 51.3026 173.474 49.6979 172.43 49.6979H171.691V50.8038C171.691 52.0832 171.756 54.5118 171.799 54.7937C171.843 55.249 172.017 55.6393 172.343 55.6393H173.235C173.387 55.6393 173.409 55.7044 173.409 55.8128V56.3332C173.409 56.4851 173.387 56.5284 173.061 56.5284C173.039 56.5284 172.496 56.4634 170.211 56.4634C167.905 56.4634 167.405 56.5284 167.166 56.5284C166.992 56.5284 166.992 56.4634 166.992 56.3116V55.8128C166.992 55.7044 166.992 55.6393 167.1 55.6393H167.753C168.232 55.6393 168.623 55.4876 168.623 54.9453C168.667 52.7986 168.667 50.7603 168.667 48.7003V46.5972H168.666ZM171.712 48.9391C172.125 48.9607 172.386 48.9607 172.582 48.9607C175.454 48.9607 176.128 46.2284 176.128 45.2093C176.128 44.2117 175.78 43.2577 175.301 42.7806C174.518 42.0867 173.539 41.8266 172.887 41.8266C172.517 41.8266 172.234 41.87 172.06 42.0217C171.93 42.1084 171.864 42.3469 171.821 42.6072L171.712 48.9391Z" fill="black"/>
<path d="M188.206 50.5219C188.032 50.9774 186.966 53.9481 186.966 54.6421C186.966 55.1191 187.161 55.6396 187.814 55.6396H188.575C188.793 55.6396 188.815 55.7263 188.815 55.813V56.2902C188.815 56.4636 188.793 56.5287 188.619 56.5287C188.336 56.5287 187.444 56.4636 185.66 56.4636C184.072 56.4636 183.594 56.5287 183.289 56.5287C183.159 56.5287 183.137 56.3985 183.137 56.2467V55.8347C183.137 55.7046 183.159 55.6396 183.289 55.6396H183.855C184.377 55.6396 184.899 55.336 185.334 54.6854C185.639 54.23 187.183 50.4571 187.901 48.5489C188.075 48.1151 189.837 43.453 190.033 42.8675C190.098 42.6506 190.207 42.3688 190.055 42.1303C189.99 42.0436 189.903 41.9351 189.903 41.8484C189.903 41.7833 189.946 41.6965 190.12 41.6531C190.816 41.5014 192.23 40.9376 192.556 40.5689C192.665 40.4606 192.731 40.3738 192.839 40.3738C192.97 40.3738 193.013 40.504 193.079 40.7425C193.492 42.1086 195.189 46.9659 195.602 48.3537C196.102 50.045 197.516 54.0783 197.821 54.6637C198.191 55.3794 198.757 55.6396 199.083 55.6396H199.822C199.953 55.6396 199.975 55.7263 199.975 55.8347V56.2467C199.975 56.3768 199.953 56.5287 199.779 56.5287C199.366 56.5287 198.909 56.4636 196.124 56.4636C194.319 56.4636 193.557 56.5287 193.122 56.5287C192.905 56.5287 192.883 56.3985 192.883 56.2467V55.8347C192.883 55.7263 192.905 55.6396 193.013 55.6396H193.622C194.21 55.6396 194.406 55.4227 194.275 54.859C194.079 54.0783 193.231 51.3028 192.97 50.5221H188.206V50.5219ZM192.774 49.6547C192.578 49.0041 191.295 44.4504 191.143 43.9083C191.056 43.583 191.012 43.4312 190.903 43.4312C190.773 43.4312 190.707 43.518 190.642 43.7132C190.533 43.9951 188.663 49.1125 188.489 49.6547H192.774Z" fill="black"/>
<path d="M205.243 42.1085H204.482C203.786 42.1085 202.481 42.1302 201.567 42.4554C201.088 42.8024 200.131 44.1251 199.587 44.9059C199.522 45.0142 199.457 45.0793 199.37 45.0576L198.891 44.8842C198.804 44.8625 198.782 44.7541 198.804 44.689C199.043 43.7783 199.761 40.916 199.848 40.4823C199.914 40.2005 200.022 40.1137 200.175 40.1137C200.327 40.1137 200.392 40.2004 200.588 40.4389C200.827 40.7425 201.241 40.9376 202.024 40.981C203.177 41.0461 204.09 41.111 206.353 41.111H207.615C209.986 41.111 210.921 41.0244 211.835 40.981C212.314 40.9594 213.162 40.6991 213.423 40.4389C213.64 40.2222 213.771 40.1137 213.923 40.1137C214.076 40.1137 214.141 40.2004 214.184 40.4606C214.25 40.9376 214.663 43.6264 214.837 44.7757C214.859 44.8624 214.815 44.9492 214.75 44.9708L214.293 45.1444C214.206 45.166 214.163 45.1009 214.076 44.9492C213.597 44.1685 212.749 43.0409 212.205 42.5206C211.661 42.1954 209.725 42.1086 209.224 42.1086H208.506V48.0717C208.506 48.3753 208.506 54.4469 208.528 54.7722C208.572 55.3143 208.746 55.6396 209.268 55.6396H210.247C210.442 55.6396 210.464 55.7046 210.464 55.8564V56.3551C210.464 56.4636 210.443 56.5287 210.247 56.5287C210.029 56.5287 209.333 56.4636 206.918 56.4636C204.612 56.4636 203.699 56.5287 203.394 56.5287C203.22 56.5287 203.198 56.4419 203.198 56.2685V55.8564C203.198 55.7046 203.22 55.6396 203.351 55.6396H204.46C204.895 55.6396 205.156 55.3794 205.2 54.989C205.243 54.5336 205.243 47.8766 205.243 47.4646V42.1085H205.243Z" fill="black"/>
<path d="M218.568 47.3778C218.568 46.8574 218.503 42.9542 218.481 42.6724C218.437 42.1519 218.22 41.9351 217.763 41.9351H216.719C216.61 41.9351 216.545 41.8917 216.545 41.805V41.1762C216.545 41.0895 216.61 41.0462 216.697 41.0462C216.958 41.0462 218.068 41.1113 220.2 41.1113C222.419 41.1113 223.115 41.0462 223.419 41.0462C223.528 41.0462 223.572 41.1112 223.572 41.2413V41.7834C223.572 41.8918 223.506 41.9352 223.397 41.9352H222.767C222.223 41.9352 221.897 42.1087 221.897 42.4989C221.897 42.7159 221.831 47.508 221.831 47.7682V49.438C221.831 49.6549 221.897 54.6638 221.897 54.8591C221.897 55.5312 222.223 55.6397 222.636 55.6397H223.528C223.637 55.6397 223.702 55.6831 223.702 55.7915V56.3986C223.702 56.4853 223.637 56.5288 223.506 56.5288C223.245 56.5288 222.375 56.4637 220.308 56.4637C218.024 56.4637 217.089 56.5288 216.85 56.5288C216.741 56.5288 216.675 56.4853 216.675 56.3552V55.7697C216.675 55.6831 216.741 55.6397 216.85 55.6397H217.48C217.915 55.6397 218.372 55.5746 218.459 55.0541C218.503 54.7289 218.568 50.0451 218.568 48.8957V47.3778H218.568Z" fill="black"/>
<path d="M228.709 55.3793C227.165 54.4468 225.511 52.1049 225.511 48.9391C225.511 47.6163 225.86 45.5563 227.535 43.5397C229.449 41.2194 231.907 40.7857 233.865 40.7857C235.671 40.7857 237.346 41.0676 239.173 42.4988C240.827 43.8 242.154 45.99 242.154 48.9825C242.154 50.5654 241.653 52.2134 240.522 53.7313C239.108 55.4878 237.259 56.7888 233.822 56.7888C232.321 56.7888 230.428 56.4418 228.709 55.3793ZM238.738 49.1558C238.738 44.4069 235.605 41.8049 233.778 41.8049C233.343 41.8049 232.255 41.6965 230.928 42.976C229.645 44.1902 228.992 46.4671 228.992 48.2453C228.992 53.7964 232.19 55.7696 233.996 55.7696C238.02 55.7696 238.738 50.934 238.738 49.1558Z" fill="black"/>
<path d="M257.547 50.1534C257.547 48.2235 257.525 47.161 257.481 46.0767C257.46 45.231 257.351 43.106 257.286 42.7806C257.155 42.2385 256.633 41.935 256.133 41.935H255.436C255.328 41.935 255.306 41.87 255.306 41.7399V41.1978C255.306 41.0893 255.328 41.046 255.502 41.046C255.741 41.046 256.437 41.111 258.047 41.111C259.352 41.111 259.874 41.046 260.114 41.046C260.309 41.046 260.331 41.0893 260.331 41.2194V41.7399C260.331 41.8484 260.309 41.935 260.222 41.935H259.613C259.243 41.935 259.026 42.3036 258.961 43.0842C258.808 44.5371 258.46 49.4377 258.46 52.3001V56.0082C258.46 56.3333 258.439 56.7238 258.134 56.7238C257.808 56.7238 257.525 56.6153 257.286 56.3768C256.916 56.0299 255.85 54.8806 254.545 53.3409C252.978 51.4978 251.238 49.4161 250.825 48.9391C250.455 48.5054 247.453 44.7757 246.952 44.0602H246.778V48.4404C246.778 50.2401 246.974 52.9073 246.996 53.7313C247.039 54.989 247.431 55.6396 248.345 55.6396H248.889C249.041 55.6396 249.063 55.7046 249.063 55.8347V56.3551C249.063 56.4852 249.041 56.5287 248.889 56.5287C248.671 56.5287 247.366 56.4636 246.343 56.4636C245.669 56.4636 244.168 56.5287 243.95 56.5287C243.863 56.5287 243.842 56.4852 243.842 56.3335V55.7697C243.842 55.7047 243.863 55.6397 243.972 55.6397H244.733C245.212 55.6397 245.56 54.9457 245.669 53.4929C245.691 53.0809 245.865 49.6114 245.865 46.4021V44.4505C245.865 43.1712 245.082 41.9567 243.994 41.9351L243.45 41.9134C243.341 41.9134 243.32 41.8268 243.32 41.7616V41.1761C243.32 41.0894 243.341 41.0461 243.45 41.0461C243.559 41.0461 243.733 41.0676 244.146 41.0677C244.581 41.0894 245.277 41.1112 246.409 41.1112C247.148 41.1112 247.801 41.0677 248.062 41.0676C248.345 41.0676 248.519 41.1543 248.693 41.3496C248.802 41.4797 253.087 46.7056 253.74 47.508C254.044 47.8766 257.221 51.8449 257.46 52.1268H257.547V50.1534H257.547Z" fill="black"/>
<path d="M262.922 60.4101C262.792 60.4751 262.574 60.4967 262.422 60.4967C262.248 60.4967 262.161 60.4101 262.161 60.2798C262.161 60.1714 262.248 60.0847 262.378 59.9546C262.835 59.5426 264.01 58.5018 264.01 57.2223C264.01 56.8754 263.705 56.6368 263.531 56.5718C263.314 56.4851 262.335 56.2248 262.335 55.1406C262.335 54.2081 262.944 53.3624 263.901 53.3624C265.141 53.3624 266.098 54.5117 266.098 56.2031C266.098 58.4802 263.596 60.0631 262.922 60.4101Z" fill="black"/>
<path d="M278.737 50.7171C278.737 51.7363 278.759 54.6853 278.781 54.9454C278.824 55.4226 279.042 55.6394 279.39 55.6394H280.499C280.652 55.6394 280.673 55.7045 280.673 55.7912V56.355C280.673 56.4635 280.652 56.5285 280.478 56.5285C280.173 56.5285 279.499 56.4635 276.953 56.4635C275.039 56.4635 274.191 56.5285 273.951 56.5285C273.799 56.5285 273.777 56.4635 273.777 56.3766V55.7911C273.777 55.6827 273.799 55.6393 273.908 55.6393H274.473C275.213 55.6393 275.365 55.5308 275.43 54.9887C275.452 54.7719 275.517 51.3891 275.517 48.8738V46.38C275.517 44.9488 275.496 42.672 275.474 42.4119C275.43 41.9782 275.213 41.9347 274.778 41.9347H273.755C273.646 41.9347 273.625 41.8913 273.625 41.7613V41.1975C273.625 41.0891 273.646 41.0458 273.755 41.0458C273.995 41.0458 274.778 41.1108 277.062 41.1108C277.453 41.1108 278.737 41.0458 279.455 41.0458C282.131 41.0458 283.414 41.2626 284.676 42.2383C285.59 42.9323 286.242 44.1682 286.242 45.5994C286.242 48.2015 284.154 49.9796 280.499 49.9796C279.825 49.9796 279.324 49.9579 278.737 49.9146V50.7171H278.737ZM278.737 49.0692C279.216 49.1776 279.716 49.1992 280.064 49.1992C280.739 49.1992 281.826 48.5053 282.305 47.7464C282.74 47.0742 282.827 46.2502 282.827 45.4479C282.827 42.4554 280.652 41.8267 279.76 41.8267C279.39 41.8267 279.129 41.8484 278.737 41.9351V49.0692Z" fill="black"/>
<path d="M286.051 55.054C286.051 54.4035 286.573 53.4061 287.813 53.4061C288.727 53.4061 289.488 54.1001 289.488 55.1409C289.488 56.1166 288.77 56.7672 287.835 56.7672C286.812 56.7671 286.051 56.0514 286.051 55.054Z" fill="black"/>
<path d="M296.256 50.5219C296.082 50.9774 295.016 53.9481 295.016 54.6421C295.016 55.1191 295.212 55.6396 295.864 55.6396H296.626C296.843 55.6396 296.865 55.7263 296.865 55.813V56.2902C296.865 56.4636 296.843 56.5287 296.669 56.5287C296.386 56.5287 295.494 56.4636 293.711 56.4636C292.123 56.4636 291.644 56.5287 291.339 56.5287C291.209 56.5287 291.187 56.3985 291.187 56.2467V55.8347C291.187 55.7046 291.209 55.6396 291.339 55.6396H291.905C292.427 55.6396 292.949 55.336 293.384 54.6854C293.689 54.23 295.233 50.4571 295.951 48.5489C296.125 48.1151 297.888 43.453 298.083 42.8675C298.149 42.6506 298.257 42.3688 298.105 42.1303C298.04 42.0436 297.953 41.9351 297.953 41.8484C297.953 41.7833 297.996 41.6965 298.17 41.6531C298.866 41.5014 300.28 40.9376 300.607 40.5689C300.716 40.4606 300.781 40.3738 300.89 40.3738C301.02 40.3738 301.064 40.504 301.129 40.7425C301.542 42.1086 303.239 46.9659 303.652 48.3537C304.153 50.045 305.567 54.0783 305.871 54.6637C306.241 55.3794 306.807 55.6396 307.133 55.6396H307.873C308.003 55.6396 308.025 55.7263 308.025 55.8347V56.2467C308.025 56.3768 308.003 56.5287 307.829 56.5287C307.416 56.5287 306.959 56.4636 304.174 56.4636C302.369 56.4636 301.607 56.5287 301.172 56.5287C300.955 56.5287 300.933 56.3985 300.933 56.2467V55.8347C300.933 55.7263 300.955 55.6396 301.064 55.6396H301.673C302.26 55.6396 302.456 55.4227 302.325 54.859C302.13 54.0783 301.281 51.3028 301.02 50.5221H296.256V50.5219ZM300.824 49.6547C300.629 49.0041 299.345 44.4504 299.193 43.9083C299.106 43.583 299.062 43.4312 298.953 43.4312C298.823 43.4312 298.758 43.518 298.692 43.7132C298.584 43.9951 296.713 49.1125 296.539 49.6547H300.824Z" fill="black"/>
<path d="M310.024 55.054C310.024 54.4035 310.546 53.4061 311.786 53.4061C312.7 53.4061 313.461 54.1001 313.461 55.1409C313.461 56.1166 312.743 56.7672 311.808 56.7672C310.785 56.7671 310.024 56.0514 310.024 55.054Z" fill="black"/>
</g>
<defs>
<clipPath id="clip0">
<rect width="313" height="65" fill="white"/>
</clipPath>
</defs>
</svg>
